<?xml version="1.0" standalone="no"?>
<!DOCTYPE svg PUBLIC "-//W3C//DTD SVG 20010904//EN"
 "http://www.w3.org/TR/2001/REC-SVG-20010904/DTD/svg10.dtd">
<svg version="1.0" xmlns="http://www.w3.org/2000/svg"
 width="32.000000pt" height="32.000000pt" viewBox="0 0 32.000000 32.000000"
 preserveAspectRatio="xMidYMid meet">

<g transform="translate(0.000000,32.000000) scale(0.100000,-0.100000)"
fill="#000000" stroke="none">
<path d="M128 291 c-16 -15 -28 -33 -28 -39 0 -7 -4 -12 -10 -12 -14 0 -12
-28 2 -32 8 -3 1 -12 -15 -22 -34 -23 -34 -39 -2 -60 34 -22 37 -91 4 -99 -47
-13 -4 -27 81 -27 85 0 128 14 81 27 -33 8 -30 77 4 99 32 21 32 37 -2 60 -16
10 -23 19 -15 22 14 4 16 32 2 32 -5 0 -10 6 -10 13 0 10 -52 67 -62 67 -1 0
-15 -13 -30 -29z m42 -131 c0 -5 -5 -10 -11 -10 -5 0 -7 5 -4 10 3 6 8 10 11
10 2 0 4 -4 4 -10z"/>
</g>
</svg>
